# xmcd
#
# Track frame offsets:
#	150
#	11668
#	25381
#	39419
#	50824
#	67880
#	77363
#	88316
#	101402
#	115810
#	129283
#	141578
#	154346
#	167856
#	178727
#	190725
#	200691
#	211711
#	222214
#	233072
#	245375
#	259781
#	272214
#	287894
#
# Disc length: 3990 seconds
#
# Revision: 1
# Processed by: cddbd v1.5.2PL0 Copyright (c) Steve Scherf et al.
# Submitted via: audiograbber 1.83.01
#
DISCID=5f0f9418
DTITLE=Jim Croce - The Jim Croce Story (Custom)
DYEAR=1900
DGENRE=Country
TTITLE0=I'll Have To Say I Love You In A Song
TTITLE1=Lover Cross
TTITLE2=New York Not My Home
TTITLE3=It Doesn't Have To Be That Way
TTITLE4=Operator
TTITLE5=Photographs and Memories
TTITLE6=Time In A Bottle
TTITLE7=Tomorrow's Gonna Be A Brighter Day
TTITLE8=I Got A Name
TTITLE9=You Don't Mess Around With Jim
TTITLE10=Rapid Boy
TTITLE11=Walking Back To Georgia
TTITLE12=Bad Bad Leroy Brown
TTITLE13=Box # 10
TTITLE14=Dreamin' Again
TTITLE15=Alabama Rain
TTITLE16=Had Time Losin' Man
TTITLE17=A Long Time Ago
TTITLE18=Speedball Tucker
TTITLE19=Hey Tomorrow
TTITLE20=These Dreams
TTITLE21=One Less Set Of Footsteps
TTITLE22=Roller Derby Queen
TTITLE23=Working At The Car Wash Blues
EXTD=
EXTT0=
EXTT1=
EXTT2=
EXTT3=
EXTT4=
EXTT5=
EXTT6=
EXTT7=
EXTT8=
EXTT9=
EXTT10=
EXTT11=
EXTT12=
EXTT13=
EXTT14=
EXTT15=
EXTT16=
EXTT17=
EXTT18=
EXTT19=
EXTT20=
EXTT21=
EXTT22=
EXTT23=
PLAYORDER=
